<svg id="Warstwa_1" data-name="Warstwa 1" xmlns="http://www.w3.org/2000/svg" viewBox="0 0 1080 560"><defs><style>.cls-1{fill:#fff;}.cls-2{fill:#641e82;}</style></defs><rect class="cls-1" width="1080" height="561.34"/><path class="cls-2" d="M92.09,463.89H81.25v23.56H73.88V431H92.09c13.28,0,19.51,7.28,19.51,16.51C111.6,456.12,106.1,463.89,92.09,463.89Zm0-6.07c8.42,0,12-4,12-10.28,0-6.55-3.57-10.44-12-10.44H81.25v20.72Z"/><path class="cls-2" d="M140.09,488.17c-12.54,0-22.1-8.9-22.1-23s9.88-22.83,22.42-22.83,22.43,8.82,22.43,22.83S152.72,488.17,140.09,488.17Zm0-6.47c7.69,0,15.22-5.26,15.22-16.51s-7.36-16.44-15-16.44c-7.78,0-14.82,5.26-14.82,16.44S132.4,481.7,140.09,481.7Z"/><path class="cls-2" d="M167.28,443.08h7.53L185,480.33l11-37.25h7.53l10.77,37.32,10-37.32h7.28L217.8,487.45h-7.61L199.5,452.23l-10.68,35.22h-7.61Z"/><path class="cls-2" d="M258.09,488.17c-12.62,0-21.94-8.9-21.94-23s9-22.83,21.94-22.83,21.29,9.07,21.29,21.21a40.37,40.37,0,0,1-.24,4.45H243.68c.57,9,6.89,13.92,14.41,13.92,6.64,0,10.85-3.4,12.47-8.17h7.93C276.23,481.86,269.11,488.17,258.09,488.17ZM243.76,462h28c.09-8.66-6.39-13.44-14-13.44C250.57,448.59,244.58,453.37,243.76,462Z"/><path class="cls-2" d="M296.46,487.45h-7.37V443.08h7.37v7.21c2.51-4.94,7.29-8,14.33-8v7.61h-2c-7,0-12.38,3.15-12.38,13.43Z"/><path class="cls-2" d="M338.46,488.17c-12.62,0-21.94-8.9-21.94-23s9-22.83,21.94-22.83,21.29,9.07,21.29,21.21a40.37,40.37,0,0,1-.24,4.45H324.05c.57,9,6.89,13.92,14.41,13.92,6.64,0,10.85-3.4,12.47-8.17h7.93C356.6,481.86,349.48,488.17,338.46,488.17ZM324.13,462h28c.09-8.66-6.39-13.44-14-13.44C330.94,448.59,324.94,453.37,324.13,462Z"/><path class="cls-2" d="M387.84,442.36c7,0,13.36,3.56,16.43,8.66V427.54h7.45v59.91h-7.45v-8.34c-2.67,4.94-8.42,9.06-16.52,9.06-11.9,0-21-9.3-21-23.06S375.85,442.36,387.84,442.36Zm1.37,6.39c-8.09,0-15,5.91-15,16.36s6.88,16.59,15,16.59,15.06-6.07,15.06-16.51S397.31,448.75,389.21,448.75Z"/><path class="cls-2" d="M469.75,442.36c12,0,21,8.9,21,22.75s-9.14,23.06-21,23.06c-8.09,0-13.84-4-16.59-8.9v8.18h-7.38V427.54h7.38v23.81C456,446.4,461.89,442.36,469.75,442.36Zm-1.54,6.39c-8,0-15,6.15-15,16.44s7,16.51,15,16.51c8.18,0,15.05-6.15,15.05-16.59S476.39,448.75,468.21,448.75Z"/><path class="cls-2" d="M531.1,443.08h7.61L512,508.33h-7.61L513.12,487l-17.89-43.88h8.18L517.34,479Z"/><path class="cls-2" d="M564.19,431H602.4v6H587v50.43h-7.36V437H564.19Z"/><path class="cls-2" d="M618.83,487.45h-7.37V443.08h7.37v7.21c2.51-4.94,7.29-8,14.33-8v7.61h-1.95c-7,0-12.38,3.15-12.38,13.43Z"/><path class="cls-2" d="M681,487.45h-7.37v-6.56c-2.83,4.62-8.26,7.2-14.16,7.2-10.21,0-18.22-6.31-18.22-19v-26h7.29v25c0,9,4.93,13.6,12.39,13.6,7.61,0,12.7-4.69,12.7-14.25V443.08H681Z"/><path class="cls-2" d="M712.63,488.17c-12.63,0-21.94-8.9-21.94-23s9-22.83,21.94-22.83,21.29,9.07,21.29,21.21a40.37,40.37,0,0,1-.24,4.45H698.22c.57,9,6.89,13.92,14.41,13.92,6.64,0,10.85-3.4,12.47-8.17H733C730.77,481.86,723.64,488.17,712.63,488.17ZM698.3,462h28c.09-8.66-6.39-13.44-14-13.44C705.11,448.59,699.11,453.37,698.3,462Z"/><path class="cls-2" d="M764.68,487.45h-21V431h20.24c11.9,0,17.89,6.47,17.89,14.32,0,7.12-4.45,11.26-9.88,13,6.15,1.05,11.17,6.95,11.17,13.92C783.05,480.81,776.34,487.45,764.68,487.45Zm-1.46-50.35H751v18.29h12.38c6.88,0,10.85-3.4,10.85-9.14S770.42,437.1,763.22,437.1Zm.57,24.36H751v19.91h13c7.28,0,11.66-3.64,11.66-9.79S771,461.46,763.79,461.46Z"/><path class="cls-2" d="M793.24,427.54h7.37v59.91h-7.37Z"/><path class="cls-2" d="M832.5,488.17c-12.55,0-22.11-8.9-22.11-23s9.88-22.83,22.43-22.83,22.43,8.82,22.43,22.83S845.12,488.17,832.5,488.17Zm0-6.47c7.69,0,15.22-5.26,15.22-16.51s-7.37-16.44-15-16.44c-7.77,0-14.81,5.26-14.81,16.44S824.81,481.7,832.5,481.7Z"/><path class="cls-2" d="M883.81,442.36c11,0,18.21,5.67,20.48,15h-7.93c-1.54-5.34-6-8.74-12.55-8.74-8.09,0-14.08,5.75-14.08,16.6s6,16.75,14.08,16.75c6.56,0,10.93-3.15,12.55-8.74h7.93c-2.27,8.82-9.47,15-20.48,15-12.63,0-21.62-8.9-21.62-23S871.18,442.36,883.81,442.36Z"/><path class="cls-2" d="M914.07,427.54h7.38v35.22l17.08-19.68H948.8l-20.88,22.11,21,22.26h-10l-17.4-19.59v19.59h-7.38Z"/><path class="cls-2" d="M971.46,488.17c-10.36,0-17.64-5.66-18.13-13.76h7.61c.41,4.29,4.21,7.53,10.45,7.53,5.82,0,9.06-2.91,9.06-6.56,0-9.87-26.23-4.12-26.23-20.63,0-6.81,6.39-12.39,16.27-12.39s16.27,5.26,16.76,13.92h-7.36c-.33-4.45-3.73-7.69-9.64-7.69-5.43,0-8.66,2.59-8.66,6.16,0,10.51,25.74,4.77,26.06,20.63C987.65,482.67,981.26,488.17,971.46,488.17Z"/><rect class="cls-2" x="512.83" y="-6.82" width="59.95" height="221.26" transform="translate(646.61 -438.99) rotate(90)"/><rect class="cls-2" x="512.83" y="228.34" width="59.95" height="221.26" transform="translate(881.76 -203.84) rotate(90)"/><rect class="cls-2" x="515.2" y="129.2" width="55.31" height="183.75" transform="translate(763.94 -321.78) rotate(90)"/><polygon class="cls-2" points="866.59 231.83 1024.59 73.84 932.29 73.84 866.54 139.59 800.7 73.74 708.61 73.84 866.59 231.83"/><polygon class="cls-2" points="866.55 258.03 829.72 221.15 829.72 368.94 903.47 368.94 903.47 221.17 866.55 258.03"/><polygon class="cls-2" points="110.91 221.41 110.91 368.94 184.66 368.94 184.66 295.17 110.91 221.41"/><polygon class="cls-2" points="124.29 208.01 124.33 208.05 184.66 147.71 184.66 73.93 110.91 73.93 110.91 221.4 124.29 208.01"/><polygon class="cls-2" points="377.12 73.93 284.93 73.93 184.66 174.2 184.66 173.9 137.42 221.14 184.66 268.38 184.66 268.24 284.93 368.94 377.12 368.83 229.89 221.15 377.12 73.93"/></svg>